<?xml version="1.0" encoding="UTF-8"?>
<svg width="365px" height="273px" viewBox="0 0 365 273" version="1.1" xmlns="http://www.w3.org/2000/svg" xmlns:xlink="http://www.w3.org/1999/xlink">
    <title>undraw_podcast_re_wr88</title>
    <g id="Home" stroke="none" stroke-width="1" fill="none" fill-rule="evenodd">
        <g id="Desktop" transform="translate(-329.000000, -189.000000)">
            <g id="Cover" transform="translate(172.000000, 138.000000)">
                <g id="undraw_podcast_re_wr88" transform="translate(157.000000, 51.000000)">
                    <path d="M112,18.2489 L112,242 L257,242 L257,12.8360633 C210.09153,-5.99936051 157.366802,-4.03115124 112,18.2489 L112,18.2489 Z" id="Path" fill="#FFFFFF" fill-rule="nonzero"></path>
                    <path d="M97,27.747038 L97,243 L146.482674,243 L145.598467,230.815865 L140.733118,97.4217391 L238.712695,97.4217391 L233.847347,230.815865 L232.963135,243 L283,243 L283,31.6442782 C282.081945,30.9708756 281.159642,30.3058982 280.224643,29.6535563 C280.042726,29.5273001 280.844259,25.9579478 280.658104,25.8316916 C269.896308,18.3422288 258.254391,12.1897778 245.991467,7.51127291 L242.368042,47.1574509 L225.390106,47.1574509 L225.390106,4.88548215 C224.281659,4.61190896 223.173207,4.35518631 222.056286,4.11528472 L222.056286,4.11532893 C222.056286,27.8868454 202.684686,47.1574678 178.788605,47.1574705 L157.943744,47.1574705 L157.943744,3 C156.83106,3.20200998 155.718376,3.41665541 154.614161,3.64391664 L154.614161,47.1574705 L137.073524,47.1574705 L134.306637,9.18676687 C122.373697,13.3024778 110.969491,18.8018038 100.329623,25.5711321 C99.9615263,25.8068186 99.5892472,26.0383293 99.221146,26.2824018 C98.4765548,26.7621951 97.7361728,27.2504072 97,27.747038 Z M225.390106,50.4739124 L242.126888,50.4739124 L239.516534,86.3739499 L225.390106,86.3739499 L225.390106,50.4739124 Z M157.943744,50.4739124 L222.056281,50.4739124 L222.056281,86.3739499 L197.217632,86.3739499 L197.217632,85.6626802 C197.217903,84.9727799 196.942525,84.3110587 196.452135,83.823226 C195.961745,83.3353933 195.296556,83.0614519 194.603041,83.0617231 L184.288508,83.0617231 C183.594334,83.0605778 182.9282,83.3341039 182.436947,83.822005 C181.945695,84.3099061 181.669657,84.9721245 181.669684,85.6626802 L181.669684,86.3739499 L157.943744,86.3739499 L157.943744,50.4739124 Z M139.925022,86.3739499 L137.314663,50.4739124 L154.614146,50.4739124 L154.614146,86.3739499 L139.925022,86.3739499 Z" id="Shape" fill="#F2F2F2" fill-rule="nonzero"></path>
                    <path d="M23,236.357933 C23.0041952,236.371044 23.00842,236.379783 23.0126399,236.392863 C23.0421837,236.484548 23.071703,236.567489 23.1054568,236.659143 L23.1054568,236.663515 C24.5439148,240.845528 26.1243884,244.95769 27.8468778,249 L353.182651,248.633297 C354.929055,244.508059 356.532021,240.307137 357.99155,236.030533 C357.996293,236.021035 358,236.010656 358,236 L23,236.357933 Z" id="Path" fill="#CCCCCC" fill-rule="nonzero"></path>
                    <path d="M144.778391,175.613466 C144.258938,177.832531 142.807961,179.7016 140.815894,180.717738 C138.823828,181.733875 136.495304,181.792699 134.456891,180.878381 L116.321457,201 L113,187.173247 L130.730911,170.185156 C132.493974,166.697723 136.521212,165.114116 140.105069,166.499011 C143.688926,167.883906 145.696612,171.799565 144.778338,175.613446 L144.778391,175.613466 Z" id="Path" fill="#FFB6B6" fill-rule="nonzero"></path>
                    <path d="M125,193.06458 L100.049356,221 L99.846581,220.962059 C99.762083,220.949432 97.8694568,220.612315 94.8699591,220.064451 C84.0211208,218.083831 58.7156202,213.359789 52.4378037,211.172658 C48.8176984,209.955353 45.5691534,207.836138 43,205.01583 C43.6505825,201.480176 44.3476575,198.833694 45.0362752,197.54417 C45.5390072,196.60443 45.4460669,195.378131 45.467168,193.979041 C47.1146379,192.844342 49.0347497,192.166626 51.0310199,192.015244 C63.5145875,191.114201 76.0373415,193.117999 87.61205,197.86867 L94.1940297,200.582563 L94.4644083,200.384512 L116.694395,184.109572 L116.846477,184 L124.493037,192.499878 L125,193.06458 Z" id="Path" fill="#5956E0" fill-rule="nonzero"></path>
                    <path d="M342.861747,221.018276 C343.108548,220.275555 343.022141,219.462329 342.624788,218.788116 C342.227435,218.113903 341.55799,217.644628 340.788926,217.501194 C340.648207,217.471164 340.505152,217.453395 340.361366,217.448087 L323.028025,217.000136 C322.241659,216.992371 321.488606,217.317452 320.954831,217.895241 C320.712112,217.84336 320.464542,217.8176 320.216346,217.8184 C318.747777,217.780178 317.370511,218.529182 316.603902,219.782969 C315.837293,221.036757 315.797955,222.604607 316.500721,223.895298 C317.203488,225.185988 318.541457,226.003185 320.010093,226.038731 C320.631062,226.051191 321.246958,225.924578 321.812706,225.668159 L323.407304,242.727601 C323.722333,243.879438 324.757894,244.68617 325.951273,244.709426 L337.219646,244.999559 C338.403024,245.020744 339.465173,244.276387 339.849629,243.15646 L342.861747,221.018276 Z M320.046035,224.862117 C318.426361,224.819713 317.146406,223.474027 317.184338,221.85346 C317.22227,220.232893 318.563783,218.948626 320.183666,218.982122 C320.238723,218.982266 320.287291,219.00837 320.342349,219.008519 C320.218945,219.479646 320.221933,219.975004 320.351013,220.444606 L321.485699,224.509851 C321.046756,224.756064 320.549012,224.877855 320.046035,224.862117 L320.046035,224.862117 Z" id="Shape" fill="#CCCCCC" fill-rule="nonzero"></path>
                    <path d="M341,216.51839 C340.641575,218.701772 336.611848,220.236676 331.766405,219.969885 C327.3107,219.751174 323.667464,218.084309 323,216.10881 C323.247023,216.030977 323.503895,215.994496 323.76143,216.000671 L340.585014,216.463501 C340.724572,216.468988 340.86342,216.487353 341,216.51839 Z" id="Path" fill="#FFFFFF" fill-rule="nonzero"></path>
                    <path d="M234,195.46872 L234,239 L264,239 L264,195.46872 C264.001035,194.826005 263.589451,194.257813 262.985384,194.068052 C262.846693,194.021486 262.701385,193.998543 262.555334,194.000072 L235.448832,194.000072 C235.065075,193.999402 234.696764,194.15375 234.425016,194.429201 C234.153267,194.704651 234.000371,195.078611 234,195.46872 Z M245.707711,210.426205 C245.723788,208.639854 247.152882,207.200338 248.910224,207.200338 C250.667566,207.200338 252.09666,208.639854 252.112737,210.426205 L252.112737,215.477138 C252.104315,217.269038 250.672971,218.717136 248.910224,218.717136 C247.147477,218.717136 245.716133,217.269038 245.707711,215.477138 L245.707711,210.426205 Z" id="Shape" fill="#CCCCCC" fill-rule="nonzero"></path>
                    <path d="M234,236 L234,240.180046 C234.001396,240.630654 234.358506,240.996243 234.800935,241 L263.19906,241 C263.642107,240.997741 264,240.631275 264,240.180046 L264,236 L234,236 Z" id="Path" fill="#3F3D56" fill-rule="nonzero"></path>
                    <path d="M187,129.766842 L187,208.228991 C187.001653,210.31098 188.691551,211.998352 190.776652,212 L307.223348,212 C309.308454,211.998363 310.998358,210.310984 311,208.228991 L311,129.766842 C310.99505,127.686895 309.306409,126.00264 307.223348,126 L190.776662,126 C188.693601,126.002645 187.00496,127.686895 187,129.766842 L187,129.766842 Z" id="Path" fill="#CCCCCC" fill-rule="nonzero"></path>
                    <path d="M189,131.030798 L189,207.973421 C189.001933,209.091868 189.907975,209.998067 191.02623,210 L305.97377,210 C307.092028,209.998075 307.998075,209.091872 308,207.973421 L308,131.030798 C308,129.910909 307.093464,129.002432 305.97377,129 L191.02623,129 C189.906539,129.002441 189,129.910912 189,131.030798 Z" id="Path" fill="#FFFFFF" fill-rule="nonzero"></path>
                    <path d="M212.283329,240.56688 C212.520694,240.842181 212.881292,241.001766 213.261973,241 L281.741465,241 C282.120733,240.999546 282.479615,240.841115 282.718533,240.568651 C282.957451,240.296188 283.05099,239.938676 282.973197,239.595312 L281.910182,234.924747 C281.820665,234.537758 281.525339,234.219045 281.125589,234.078021 C280.983145,234.026327 280.831465,233.999861 280.67845,234 L214.320768,234 C214.167753,233.999858 214.016072,234.026325 213.873629,234.078021 C213.473865,234.219028 213.178532,234.537749 213.089036,234.924747 L212.026021,239.595312 C211.949421,239.938482 212.043924,240.295316 212.283329,240.56688 Z" id="Path" fill="#F2F2F2" fill-rule="nonzero"></path>
                    <path d="M302.583095,139 L195.416905,139 C195.185188,138.994026 195,138.771927 195,138.5 C195,138.228073 195.185188,138.005974 195.416905,138 L302.583095,138 C302.814812,138.005974 303,138.228073 303,138.5 C303,138.771927 302.814812,138.994026 302.583095,139 L302.583095,139 Z" id="Path" fill="#3F3D56" fill-rule="nonzero"></path>
                    <circle id="Oval" fill="#3F3D56" fill-rule="nonzero" cx="202.5" cy="133.5" r="2.5"></circle>
                    <circle id="Oval" fill="#3F3D56" fill-rule="nonzero" cx="210.5" cy="133.5" r="2.5"></circle>
                    <circle id="Oval" fill="#3F3D56" fill-rule="nonzero" cx="219.5" cy="133.5" r="2.5"></circle>
                    <path d="M296.544907,132 L290.450857,132 C290.200214,132.006182 290,132.228219 290,132.5 C290,132.771781 290.200214,132.993818 290.450857,133 L296.544907,133 C296.797229,132.996334 297,132.773554 297,132.5 C297,132.226446 296.797229,132.003666 296.544907,132 Z" id="Path" fill="#3F3D56" fill-rule="nonzero"></path>
                    <path d="M296.545076,133 L290.450761,133 C290.200154,133.006244 290,133.228262 290,133.5 C290,133.771738 290.200154,133.993756 290.450761,134 L296.545076,134 C296.797332,133.996229 297,133.77348 297,133.5 C297,133.22652 296.797332,133.003771 296.545076,133 L296.545076,133 Z" id="Path" fill="#3F3D56" fill-rule="nonzero"></path>
                    <path d="M296.544907,135 L290.450857,135 C290.200214,135.006182 290,135.228219 290,135.5 C290,135.771781 290.200214,135.993818 290.450857,136 L296.544907,136 C296.797229,135.996334 297,135.773554 297,135.5 C297,135.226446 296.797229,135.003666 296.544907,135 L296.544907,135 Z" id="Path" fill="#3F3D56" fill-rule="nonzero"></path>
                    <rect id="Rectangle" fill="#5956E0" fill-rule="nonzero" x="241" y="163" width="21" height="4" rx="2"></rect>
                    <rect id="Rectangle" fill="#5956E0" fill-rule="nonzero" x="230" y="172" width="43" height="4" rx="2"></rect>
                    <rect id="Rectangle" fill="#5956E0" fill-rule="nonzero" x="230" y="181" width="43" height="4" rx="2"></rect>
                    <ellipse id="Oval" fill="#3F3D56" fill-rule="nonzero" cx="178" cy="241.5" rx="10" ry="3.5"></ellipse>
                    <ellipse id="Oval" fill="#3F3D56" fill-rule="nonzero" cx="178" cy="239.5" rx="10" ry="3.5"></ellipse>
                    <path d="M178.591713,242 L177.120322,241.977924 L177.526249,214.447342 C177.646346,205.305792 172.907525,196.789463 165.083604,192.086155 L137,175.265594 L137.754853,174 L165.838458,190.821043 C174.112935,195.794947 179.124683,204.801564 178.997641,214.469418 L178.591713,242 Z" id="Path" fill="#3F3D56" fill-rule="nonzero"></path>
                    <rect id="Rectangle" fill="#5956E0" fill-rule="nonzero" x="134" y="158" width="7" height="29" rx="3.5"></rect>
                    <path d="M135.658456,193 C129.886542,192.991689 125.191576,188.247592 125.119133,182.350389 L125,171.015874 L126.446555,171 L126.565688,182.334992 C126.602985,185.869844 128.603461,189.075706 131.724182,190.601733 C134.844903,192.127761 138.543223,191.708602 141.260793,189.520875 L151.104853,181.596943 L152,182.75842 L142.15594,190.682352 C140.307209,192.18025 138.01787,192.996855 135.658456,193 L135.658456,193 Z" id="Path" fill="#3F3D56" fill-rule="nonzero"></path>
                    <ellipse id="Oval" fill="#3F3D56" fill-rule="nonzero" cx="125.5" cy="169.5" rx="4.5" ry="10.5"></ellipse>
                    <path d="M94.24104,227.919032 C93.8593477,225.501628 93.6035039,222.851784 93.4357222,220.079396 C93.0414573,213.735852 93.0792192,206.741482 93.0330854,200.343018 C93.0136683,197.435175 92.785168,194.259826 92.4879688,191.311748 C91.9623424,185.863196 88.8671313,181.002245 84.1708643,178.249944 C82.594872,177.331569 81.1745904,176.165422 79.9637009,174.795581 C79.3093964,174.060225 79.2297014,172.361281 79.1458105,170.565139 C79.0451513,168.380201 78.9402963,166.114941 77.7785,164.948521 L77.7281704,164.897808 L77.661048,164.872427 C72.7831055,163.236884 64.5413779,164.297665 62.0919124,164.868219 L61.9870525,164.893575 L61.919979,164.97808 C60.9091471,166.326242 60.9636724,168.481607 61.0182027,170.565139 C61.0643316,172.437351 61.1104655,174.208131 60.2884038,174.74064 C59.6508629,175.154799 59.038516,175.547833 58.4471089,175.928204 C51.1952247,180.589695 47.5545974,182.931034 44.887001,190.542438 C44.5310866,191.631187 44.3622876,192.77318 44.3878811,193.919182 C44.3669169,195.322285 44.4592042,196.552101 43.9600843,197.494535 C43.2764144,198.787757 42.5843431,201.441829 41.93844,204.987622 C38.5536614,223.620967 36.5446142,266.948045 44.8157072,267.962366 C45.4616152,268.042668 44.1446344,269.348548 43.6916434,270.003607 C43.0415347,270.946071 42.4836937,271.757496 42.80666,272.378733 C43.0247419,272.801357 43.5951849,273 44.5934246,273 C48.3598711,273 87.0771983,267.27349 88.1760973,265.211101 C88.2474204,265.075859 88.2557874,265.329423 88.1760973,265.211101 C106.328909,262.823277 96.7198416,243.720809 94.24104,227.919032 Z" id="Path" fill="#5956E0" fill-rule="nonzero"></path>
                    <rect id="Rectangle" fill="#FFFFFF" x="26" y="249" width="339" height="24"></rect>
                    <path d="M139.752716,246.005235 C138.13896,244.383767 135.866353,243.537711 133.546416,243.694727 C131.226478,243.851742 129.097524,244.995701 127.73242,246.818782 L101,239 L105.144613,252.465993 L129.894748,257.826398 C133.284102,259.889188 137.731168,259.171354 140.246164,256.1555 C142.761159,253.139646 142.54915,248.779014 139.752671,246.005279 L139.752716,246.005235 Z" id="Path" fill="#FFB6B6" fill-rule="nonzero"></path>
                    <path d="M108,254 L71.9522781,247.479961 C71.8062805,247.10832 57.3345497,210.190342 55.5464653,201.897409 C54.4147544,196.897833 55.0522196,191.667177 57.3530226,187.073885 L57.4165334,186.963749 L57.5347772,186.913476 C62.5146016,184.821281 68.3007759,186.415449 71.4576376,190.749409 C78.8019037,200.946305 83.6408073,212.685883 85.592429,225.041578 L86.6942453,232.071085 L103.872292,236.991763 L108,254 Z" id="Path" fill="#5956E0" fill-rule="nonzero"></path>
                    <path d="M95.4881751,153.334825 C90.8843014,161.75226 81.0571047,165.850815 71.8355893,163.19943 C62.6140739,160.548045 56.465423,151.85609 57.0367106,142.279199 C57.6079981,132.702309 64.7463782,124.802746 74.2177187,123.266138 C83.6890592,121.729531 92.9593372,126.966992 96.5298848,135.871921 C96.6237095,136.106513 96.7081988,136.341105 96.7926337,136.585086 C98.7748826,142.097753 98.3000006,148.195416 95.4881751,153.334825 L95.4881751,153.334825 Z" id="Path" fill="#FFB6B6" fill-rule="nonzero"></path>
                    <path d="M97.6073797,136 C96.7402706,133.572447 97.1185091,134.836985 96.2421657,132.418672 C96.8141406,134.560086 95.9100941,135.760008 95.9930864,136 L72,136 L72,122.043902 C79.0291675,119.256359 85.9014192,116.884201 90.0524723,122.043902 C97.7553422,122.044233 103.999669,128.292393 104,136 L97.6073797,136 Z" id="Path" fill="#2F2E41" fill-rule="nonzero"></path>
                    <path d="M78.82582,175 C78.807401,174.738622 78.7798308,174.467838 78.7429977,174.206455 C78.4214934,172.288669 77.9003221,170.410929 77.1882413,168.604787 C76.4982633,166.634879 75.7990759,164.655572 75.0999467,162.685664 C76.0002897,166.261506 75.7257105,170.037878 74.317937,173.440884 C70.2792618,170.247953 72.2206805,165.441608 67.5469589,162.947107 C55.0041707,156.252653 50.6637915,145.43407 54.1723609,128.817996 C55.4200732,122.908998 62.6879166,117 75.3835084,117 C88.0883679,117 93.7516499,123.410565 94,136.294447 C78.3604863,140.02889 81.7788931,173.69298 78.82582,175 Z" id="Path" fill="#2F2E41" fill-rule="nonzero"></path>
                    <circle id="Oval" fill="#2F2E41" fill-rule="nonzero" cx="54.5" cy="121.5" r="8.5"></circle>
                    <path d="M51.0383159,118.495686 C49.6142375,120.152899 47.3845372,120.797076 45.3731534,121.659464 C38.1662059,124.819699 32.9847471,131.33244 31.5273144,139.06274 C30.9712235,142.164147 31.0439648,145.374659 30.1656066,148.398155 C29.2924484,151.421656 27.1303528,154.388017 24.0274944,154.912717 C21.9277645,155.271172 19.8228297,154.460755 17.8478311,153.660703 C16.7615663,153.224338 15.6753095,152.786231 14.589061,152.346382 C15.7220883,149.504696 16.8533806,146.663021 17.982938,143.821355 C16.1675522,146.503145 14.0562854,148.972435 11.6889141,151.182703 C7.79607929,149.613799 3.8997746,148.044897 0,146.475996 C9.59438416,146.512365 7.95719911,137.202918 10.1037191,127.862306 C11.2835349,122.729635 21.3300542,119.254171 23.2998821,114.370848 C25.4733001,108.962428 30.5951496,105.311293 36.4188888,105.018901 C42.2426279,104.726509 47.7047333,107.846257 50.4094203,113.009763 C52.3792384,113.794211 52.4364139,116.859278 51.0383159,118.495686 Z" id="Path" fill="#2F2E41" fill-rule="nonzero"></path>
                    <path d="M84.2072881,116.873889 L84.2072881,116.873889 C85.9536789,116.873889 87.3694082,118.289619 87.3694082,120.036009 L87.3694082,143.553875 C87.3694082,144.39252 87.0362578,145.196816 86.4432462,145.789828 C85.8502345,146.382839 85.0459381,146.71599 84.2072931,146.71599 L84.2072931,146.71599 C82.4609023,146.71599 81.0451729,145.30026 81.0451729,143.55387 L81.0451729,120.036009 C81.0451729,119.197364 81.3783234,118.393068 81.971335,117.800056 C82.5643467,117.207045 83.368643,116.873889 84.2072881,116.873889 L84.2072881,116.873889 Z" id="Path" fill="#FFFFFF" fill-rule="nonzero" transform="translate(84.207291, 131.794940) rotate(18.453740) translate(-84.207291, -131.794940) "></path>
                    <circle id="Oval" fill="#FFFFFF" fill-rule="nonzero" cx="78.5" cy="146.5" r="8.5"></circle>
                    <circle id="Oval" fill="#5956E0" fill-rule="nonzero" cx="79" cy="147" r="2"></circle>
                </g>
            </g>
        </g>
    </g>
</svg>