<?xml version="1.0" standalone="no"?>
<!DOCTYPE svg PUBLIC "-//W3C//DTD SVG 20010904//EN"
 "http://www.w3.org/TR/2001/REC-SVG-20010904/DTD/svg10.dtd">
<svg version="1.0" xmlns="http://www.w3.org/2000/svg"
 width="254.000000pt" height="254.000000pt" viewBox="0 0 254.000000 254.000000"
 preserveAspectRatio="xMidYMid meet">
<metadata>
Created by potrace 1.14, written by Peter Selinger 2001-2017
</metadata>
<g transform="translate(0.000000,254.000000) scale(0.100000,-0.100000)"
fill="#000000" stroke="none">
<path d="M1120 2529 c-550 -68 -989 -480 -1097 -1027 -23 -117 -23 -347 0
-464 102 -517 498 -913 1015 -1015 117 -23 347 -23 464 0 517 102 913 498
1015 1015 23 117 23 347 0 464 -101 514 -502 917 -1009 1013 -104 20 -291 27
-388 14z m-188 -696 c3 -75 4 -78 28 -81 59 -6 162 -36 166 -47 5 -12 -20
-122 -29 -131 -2 -2 -42 5 -88 16 -181 43 -289 11 -289 -85 0 -58 32 -85 160
-134 134 -52 206 -95 247 -149 80 -106 65 -259 -34 -341 -36 -30 -110 -61
-144 -61 -16 0 -19 -11 -21 -92 l-3 -93 -77 -3 -78 -3 0 89 0 90 -57 7 c-59 7
-167 38 -192 54 -12 8 -10 19 9 73 13 34 24 64 26 66 1 2 39 -8 84 -22 62 -20
102 -26 171 -26 138 0 179 25 179 108 0 64 -41 97 -192 153 -113 41 -174 77
-213 122 -111 129 -42 339 129 393 l56 18 0 78 0 78 80 0 79 0 3 -77z m745
-419 c164 -69 304 -128 311 -131 9 -4 12 -26 10 -81 l-3 -75 -304 -129 c-167
-70 -307 -128 -310 -128 -11 0 -51 134 -43 141 4 4 106 47 227 95 121 48 223
90 228 94 4 3 -99 48 -228 100 -129 51 -235 96 -235 99 0 7 44 141 46 141 1 0
137 -57 301 -126z"/>
</g>
</svg>
